<svg width="20" height="19" viewBox="0 0 20 19" fill="none" xmlns="http://www.w3.org/2000/svg">
<path fill-rule="evenodd" clip-rule="evenodd" d="M10 3.16667C9.67033 3.16667 9.38775 2.87209 9.38775 2.52842V0.638243C9.38775 0.294574 9.67033 0 10 0C10.3297 0 10.6122 0.294574 10.6122 0.638243V2.52842C10.6122 2.87209 10.3297 3.16667 10 3.16667ZM6.40172 5.75417C7.31472 4.90417 8.60365 4.35417 10 4.35417C11.3963 4.35417 12.6853 4.87917 13.5983 5.75417C14.5113 6.60417 15.102 7.80417 15.102 9.10417C15.102 10.4042 14.5113 11.6042 13.5983 12.4542C12.6853 13.3042 11.3963 13.8542 10 13.8542C8.60365 13.8542 7.31472 13.3292 6.40172 12.4542C5.48872 11.6042 4.89796 10.4042 4.89796 9.10417C4.89796 7.80417 5.46187 6.60417 6.40172 5.75417ZM3.0593 3.51209L4.54178 4.94978C4.83827 5.21118 5.26954 5.21118 5.51213 4.94978C5.78167 4.68838 5.78167 4.27015 5.51213 4.00875L4.02965 2.57105C3.76011 2.30965 3.32884 2.30965 3.0593 2.57105C2.78976 2.83245 2.78976 3.25069 3.0593 3.51209ZM0.658124 8.70833H2.60718C2.96156 8.70833 3.26531 8.98237 3.26531 9.30208C3.26531 9.62179 2.96156 9.89583 2.60718 9.89583H0.658124C0.303749 9.89583 0 9.62179 0 9.30208C0 8.98237 0.303749 8.70833 0.658124 8.70833ZM5.51213 13.6544C5.24259 13.393 4.81132 13.393 4.54178 13.6544L3.0593 15.0921C2.78976 15.3535 2.78976 15.7717 3.0593 16.0331C3.32884 16.2945 3.76011 16.2945 4.02965 16.0331L5.51213 14.5954C5.78167 14.334 5.78167 13.9158 5.51213 13.6544ZM10 15.4375C10.3297 15.4375 10.6122 15.7321 10.6122 16.0757V17.9659C10.6122 18.3096 10.3297 18.6042 10 18.6042C9.67033 18.6042 9.38775 18.3096 9.38775 17.9659V16.0757C9.38775 15.7321 9.67033 15.4375 10 15.4375ZM16.9407 15.0921L15.4582 13.6544C15.1617 13.393 14.7305 13.393 14.4879 13.6544C14.2183 13.9158 14.2183 14.334 14.4879 14.5954L15.9704 16.0331C16.2399 16.2945 16.6712 16.2945 16.9407 16.0331C17.2102 15.7717 17.2102 15.3535 16.9407 15.0921ZM16.7347 9.30208C16.7347 8.98237 17.0384 8.70833 17.3928 8.70833H19.3419C19.6963 8.70833 20 8.98237 20 9.30208C20 9.62179 19.6963 9.89583 19.3419 9.89583H17.3928C17.0384 9.89583 16.7347 9.62179 16.7347 9.30208ZM14.4879 4.94978C14.7574 5.21118 15.1887 5.21118 15.4582 4.94978L16.9407 3.51209C17.2102 3.25069 17.2102 2.83245 16.9407 2.57105C16.6712 2.30965 16.2399 2.30965 15.9704 2.57105L14.4879 4.00875C14.2183 4.27015 14.2183 4.68838 14.4879 4.94978Z" fill="white"/>
</svg>
